<?xml version="1.0" ?><svg enable-background="new 0 0 512 512" id="Layer_1" version="1.1" viewBox="0 0 512 512" xml:space="preserve" xmlns="http://www.w3.org/2000/svg" xmlns:xlink="http://www.w3.org/1999/xlink"><g><g><linearGradient gradientUnits="userSpaceOnUse" id="SVGID_1_" x1="-0.0000027" x2="512" y1="256" y2="256"><stop offset="0" style="stop-color:#A364AB"/><stop offset="1" style="stop-color:#8C3D96"/></linearGradient><circle cx="256" cy="256" fill="url(#SVGID_1_)" r="256"/><linearGradient gradientUnits="userSpaceOnUse" id="SVGID_2_" x1="42.6666641" x2="469.3333435" y1="256.0005188" y2="256.0005188"><stop offset="0" style="stop-color:#8C3D96"/><stop offset="1" style="stop-color:#A364AB"/></linearGradient><path d="M256,469.3338623c-117.6314697,0-213.3333435-95.7018738-213.3333435-213.3333435    c0-117.6309204,95.7018661-213.333313,213.3333435-213.333313c117.6357422,0,213.3333435,95.7024002,213.3333435,213.333313    C469.3333435,373.6319885,373.6357422,469.3338623,256,469.3338623z" fill="url(#SVGID_2_)"/></g><polygon opacity="0.3" points="342.9151917,222.9146729 336.237854,229.5914612 365.9263916,259.2784119 268.7219849,259.2784119    268.7219849,162.0730591 298.4079895,191.7594604 305.0848083,185.0826721 264.0025024,144 222.9170074,185.0826721    229.5939789,191.7594604 259.2779846,162.0778656 259.2779846,259.2784119 162.0757294,259.2784119 191.7619781,229.5914612    185.0847931,222.9146729 144,264 185.0847931,305.0853271 191.7619781,298.4079895 162.0757294,268.7215881    259.2779846,268.7215881 259.2779846,365.9248047 229.5919952,336.2384033 222.9149933,342.9146729 264,384    305.0848083,342.9146729 298.4079895,336.2384033 268.7219849,365.9248047 268.7219849,268.7215881 365.9221497,268.7215881    336.237854,298.4064026 342.9151917,305.0826721 384,263.9978638  "/><polygon fill="#FFFFFF" points="334.9151917,214.9146729 328.237854,221.5914612 357.9263916,251.2783966 260.7219849,251.2783966    260.7219849,154.0730591 290.4079895,183.7594604 297.0848083,177.0826721 256.0025024,136 214.9170074,177.0826721    221.5939789,183.7594604 251.2779694,154.0778656 251.2779694,251.2783966 154.0757294,251.2783966 183.7621307,221.5914612    177.0847931,214.9146729 136,256 177.0847931,297.0853271 183.7621307,290.4079895 154.0757294,260.7215881    251.2779694,260.7215881 251.2779694,357.9248047 221.5919952,328.2384033 214.9149933,334.9146729 256,376    297.0848083,334.9146729 290.4079895,328.2384033 260.7219849,357.9248047 260.7219849,260.7215881 357.9221191,260.7215881    328.237854,290.4064026 334.9151917,297.0826721 376,255.9978638  "/></g></svg>